Hanif_Medium_2_5_grf.mot
version=1
nRows=48
nColumns=19
inDegrees=yes
endheader
time	right_ground_force_vx	right_ground_force_vy	right_ground_force_vz	right_ground_force_px	right_ground_force_py	right_ground_force_pz	right_ground_torque_x	right_ground_torque_y	right_ground_torque_z	left_ground_force_vx	left_ground_force_vy	left_ground_force_vz	left_ground_force_px	left_ground_force_py	left_ground_force_pz	left_ground_torque_x	left_ground_torque_y	left_ground_torque_z
3.875000	4.051960	276.645000	48.996800	0.227531	0.000000	-1.439330	-18.388400	2.692920	8.284280	-10.961600	275.035000	-50.015300	0.240955	0.000000	-0.979786	21.298200	-1.608460	12.082000
3.880000	3.611500	274.169000	49.053800	0.228583	0.000000	-1.438250	-18.526900	2.592770	8.507430	-10.711400	269.949000	-49.726200	0.241672	0.000000	-0.979531	20.835500	-1.545390	12.066800
3.885000	3.354340	269.049000	48.727400	0.228461	0.000000	-1.437400	-18.410400	2.541310	8.327250	-10.209700	265.298000	-50.413200	0.241896	0.000000	-0.979223	20.390700	-1.498990	11.948900
3.890000	3.014660	269.008000	48.738800	0.229194	0.000000	-1.438040	-18.241500	2.440340	8.516120	-10.560500	262.204000	-49.944800	0.243077	0.000000	-0.979654	20.276600	-1.445880	12.134500
3.895000	3.142050	265.755000	49.495600	0.229603	0.000000	-1.437180	-18.245100	2.428320	8.552050	-10.733200	261.467000	-50.502600	0.243353	0.000000	-0.980233	20.370500	-1.283990	12.166300
3.900000	3.356870	262.441000	49.233200	0.230217	0.000000	-1.436500	-18.192800	2.334290	8.603390	-11.036800	256.833000	-50.375300	0.244685	0.000000	-0.981257	20.282800	-1.164130	12.315900
3.905000	3.752840	259.543000	49.507500	0.230217	0.000000	-1.436910	-17.881400	2.262470	8.510050	-11.245000	255.817000	-49.926500	0.245397	0.000000	-0.981544	20.281000	-1.128600	12.448200
3.910000	3.714300	256.761000	49.764400	0.230415	0.000000	-1.436450	-17.807400	2.277830	8.494190	-11.640600	253.871000	-49.839700	0.245687	0.000000	-0.981075	20.012000	-0.981587	12.416900
3.915000	3.922980	254.221000	50.353800	0.231758	0.000000	-1.435750	-17.804200	2.158460	8.763260	-10.791600	252.211000	-50.065300	0.246505	0.000000	-0.981002	19.849800	-0.961845	12.549200
3.920000	3.843800	250.457000	49.896800	0.231856	0.000000	-1.435780	-17.535800	2.073230	8.654510	-10.465600	249.499000	-50.259900	0.246251	0.000000	-0.981902	19.853700	-0.846775	12.344600
3.925000	3.925930	248.307000	49.916700	0.232875	0.000000	-1.435070	-17.559800	1.932080	8.825340	-10.110000	246.427000	-50.058900	0.246561	0.000000	-0.981037	19.393300	-0.851498	12.280700
3.930000	3.200610	245.952000	49.561000	0.233243	0.000000	-1.435000	-17.419900	1.874940	8.840130	-9.118370	242.274000	-49.783000	0.247166	0.000000	-0.982256	19.346600	-0.783377	12.218900
3.935000	3.646450	243.294000	49.251200	0.234251	0.000000	-1.434080	-17.449900	1.839690	8.993950	-8.501260	240.037000	-49.957200	0.246477	0.000000	-0.981438	18.958600	-0.696327	11.923200
3.940000	3.177960	240.295000	49.121200	0.235402	0.000000	-1.433530	-17.371300	1.759170	9.174830	-7.848470	236.917000	-49.963200	0.246766	0.000000	-0.982246	18.895000	-0.669954	11.845000
3.945000	2.787810	237.891000	49.417600	0.235427	0.000000	-1.433060	-17.312900	1.676370	9.097540	-7.425870	236.542000	-50.499100	0.246975	0.000000	-0.981537	18.689500	-0.624256	11.875800
3.950000	2.956910	236.699000	49.244500	0.235370	0.000000	-1.432870	-17.271500	1.504020	9.002400	-6.940110	232.759000	-50.099700	0.247236	0.000000	-0.983050	18.736900	-0.585214	11.749400
3.955000	3.139900	234.874000	49.324100	0.235580	0.000000	-1.433960	-16.880400	1.476650	8.987890	-6.678700	230.961000	-49.907500	0.247638	0.000000	-0.982432	18.445700	-0.548713	11.749400
3.960000	3.382580	232.113000	49.316700	0.235951	0.000000	-1.433780	-16.720700	1.344490	8.955100	-6.051850	228.867000	-49.804800	0.247620	0.000000	-0.982431	18.269000	-0.542917	11.637600
3.965000	3.520100	229.401000	49.481100	0.235761	0.000000	-1.432910	-16.723900	1.220410	8.793110	-5.995440	225.932000	-49.510200	0.247392	0.000000	-0.982915	18.143000	-0.471768	11.430100
3.970000	3.720860	226.312000	48.927200	0.236377	0.000000	-1.433100	-16.453600	1.137970	8.804710	-5.208690	224.465000	-49.008400	0.247761	0.000000	-0.982215	17.854500	-0.417480	11.412900
3.975000	3.166600	222.687000	49.002400	0.236382	0.000000	-1.433130	-16.191800	0.990479	8.661230	-5.421440	219.745000	-47.916700	0.248484	0.000000	-0.983355	17.735300	-0.387772	11.340200
3.980000	3.196630	219.189000	48.997400	0.236732	0.000000	-1.432640	-16.046200	0.795354	8.578850	-5.026830	216.411000	-47.206100	0.249108	0.000000	-0.984108	17.622100	-0.267084	11.280300
3.985000	2.554410	215.874000	48.781900	0.237843	0.000000	-1.432570	-15.823600	0.645089	8.689800	-5.194670	213.180000	-46.286300	0.249108	0.000000	-0.983783	17.293000	-0.248205	11.107400
3.990000	2.813460	212.806000	48.012700	0.237609	0.000000	-1.433170	-15.469500	0.591842	8.498120	-5.382390	207.293000	-45.025600	0.249919	0.000000	-0.983320	16.723700	-0.169109	10.966700
3.995000	1.869590	212.691000	47.465000	0.238255	0.000000	-1.433590	-15.382500	0.386608	8.597780	-6.449390	204.738000	-44.444000	0.248996	0.000000	-0.982964	16.460600	-0.129827	10.644100
4.000000	1.124550	208.172000	47.111900	0.238915	0.000000	-1.432030	-15.387000	0.228197	8.548740	-6.262170	200.467000	-43.415800	0.249970	0.000000	-0.983767	16.275300	-0.017131	10.600500
4.005000	0.306358	204.666000	46.973800	0.240118	0.000000	-1.432330	-15.074700	0.029375	8.644980	-6.462660	194.388000	-42.494500	0.250930	0.000000	-0.983838	15.805000	-0.052131	10.498900
4.010000	-0.430898	203.565000	45.930100	0.240009	0.000000	-1.432640	-14.936900	-0.097627	8.544170	-6.100890	191.504000	-41.626000	0.250482	0.000000	-0.983574	15.511300	0.049920	10.220300
4.015000	-1.428390	200.696000	45.294600	0.240647	0.000000	-1.431580	-14.948100	-0.244419	8.542010	-6.545450	185.449000	-40.273300	0.250989	0.000000	-0.983606	15.034200	0.148656	9.984100
4.020000	-1.876060	197.739000	45.386000	0.242020	0.000000	-1.431310	-14.784200	-0.378939	8.691860	-6.659490	181.643000	-39.401700	0.251374	0.000000	-0.984851	14.955700	0.170162	9.852060
4.025000	-2.203940	193.449000	44.695700	0.243225	0.000000	-1.429980	-14.723200	-0.527060	8.725040	-6.900360	178.604000	-38.984900	0.252332	0.000000	-0.985111	14.754500	0.297893	9.850660
4.030000	-2.847590	193.591000	44.314800	0.241503	0.000000	-1.431420	-14.459000	-0.674873	8.349700	-7.010790	175.457000	-38.576300	0.252645	0.000000	-0.984538	14.398400	0.296977	9.743750
4.035000	-3.178120	191.417000	44.213000	0.243173	0.000000	-1.431460	-14.290000	-0.794351	8.576190	-7.266140	174.999000	-37.929700	0.253295	0.000000	-0.983823	14.236900	0.370681	9.811620
4.040000	-3.057440	190.366000	44.182400	0.244047	0.000000	-1.429290	-14.623800	-0.895165	8.683490	-7.071590	173.629000	-38.029100	0.253170	0.000000	-0.984963	14.323200	0.342898	9.726620
4.045000	-3.588520	191.381000	44.149400	0.244006	0.000000	-1.430920	-14.390100	-1.104160	8.677470	-7.567070	171.237000	-37.793500	0.253961	0.000000	-0.984298	14.019800	0.425129	9.732110
4.050000	-3.643380	188.697000	43.405900	0.244077	0.000000	-1.429660	-14.425800	-1.167580	8.552780	-7.569700	171.261000	-37.687200	0.254089	0.000000	-0.985277	14.188100	0.463117	9.747090
4.055000	-3.235700	189.515000	43.762100	0.244005	0.000000	-1.431310	-14.169300	-1.294810	8.541010	-7.286190	169.541000	-37.179300	0.254061	0.000000	-0.986301	14.213100	0.517272	9.626070
4.060000	-3.916110	188.953000	43.456200	0.244862	0.000000	-1.431750	-14.044100	-1.506490	8.645610	-7.286830	165.505000	-36.806500	0.254674	0.000000	-0.988527	14.248500	0.514871	9.520480
4.065000	-3.560090	186.170000	43.301200	0.243953	0.000000	-1.431250	-13.925900	-1.678280	8.297020	-7.530450	166.357000	-36.260700	0.254177	0.000000	-0.986357	13.959800	0.541950	9.459630
4.070000	-3.516570	186.159000	42.899200	0.244565	0.000000	-1.430940	-13.980900	-1.779540	8.387540	-7.384460	164.799000	-35.489500	0.253704	0.000000	-0.987136	13.953600	0.560786	9.273840
4.075000	-3.826370	185.137000	42.068500	0.244246	0.000000	-1.430270	-14.025900	-1.862760	8.257070	-7.349530	162.765000	-34.992300	0.254023	0.000000	-0.985703	13.545400	0.634365	9.193830
4.080000	-4.357640	181.955000	41.285100	0.245072	0.000000	-1.429320	-13.956200	-2.053150	8.233340	-7.616300	163.301000	-34.596500	0.253011	0.000000	-0.985253	13.513700	0.707341	9.028090
4.085000	-4.822620	181.003000	40.287400	0.244237	0.000000	-1.430460	-13.673200	-2.164450	8.003000	-7.472530	160.896000	-34.091300	0.251775	0.000000	-0.987140	13.615600	0.719305	8.685260
4.090000	-5.350500	180.530000	38.869400	0.245168	0.000000	-1.430050	-13.709100	-2.254580	8.134350	-7.586690	161.111000	-33.982500	0.253105	0.000000	-0.985782	13.418600	0.700078	8.921210
4.095000	-5.805100	181.725000	39.431100	0.245213	0.000000	-1.430880	-13.650300	-2.251960	8.209250	-7.414100	164.131000	-34.845700	0.250566	0.000000	-0.985101	13.547200	0.779861	8.637090
4.100000	-5.929370	183.458000	39.170300	0.245149	0.000000	-1.429360	-14.054200	-2.427250	8.239240	-7.663910	164.208000	-34.732500	0.251623	0.000000	-0.985863	13.682500	0.807344	8.819610
4.105000	-5.761380	185.063000	39.948200	0.244684	0.000000	-1.429410	-14.167900	-2.410920	8.229550	-7.876780	166.977000	-34.898200	0.250401	0.000000	-0.983346	13.491700	0.787646	8.751060
4.110000	-5.630330	187.124000	39.559600	0.245013	0.000000	-1.430440	-14.129400	-2.535770	8.353220	-8.185340	166.914000	-35.284600	0.250630	0.000000	-0.983274	13.485100	0.685479	8.822480
